<?xml version="1.0" encoding="UTF-8" standalone="no"?>
<svg width="25px" height="35px" viewBox="0 0 25 35" version="1.1" xmlns="http://www.w3.org/2000/svg" xmlns:xlink="http://www.w3.org/1999/xlink">
    <!-- Generator: Sketch 49 (51002) - http://www.bohemiancoding.com/sketch -->
    <title>arrow-pointing-to-right</title>
    <desc>Created with Sketch.</desc>
    <defs></defs>
    <g id="Page-1" stroke="none" stroke-width="1" fill="none" fill-rule="evenodd">
        <g id="Home-01" transform="translate(-707.000000, -1064.000000)" fill="#FFFFFF" fill-rule="nonzero">
            <g id="Group-3" transform="translate(719.000000, 1082.000000) rotate(-90.000000) translate(-719.000000, -1082.000000) translate(684.000000, 1047.000000)">
                <g id="arrow-pointing-to-right" transform="translate(35.500000, 35.500000) rotate(-180.000000) translate(-35.500000, -35.500000) translate(18.500000, 23.500000)">
                    <path d="M33.2903248,10.7402459 L23.2468963,0.469961784 C22.6341216,-0.156653928 21.6403244,-0.156653928 21.0275497,0.469961784 C20.4146495,1.09670587 20.4146495,2.11269373 21.0275497,2.73943782 L28.3920192,10.2702521 L1.56928571,10.2702521 C0.702663368,10.2702521 0,10.9887868 0,11.874984 C0,12.7610527 0.702663368,13.4797159 1.56928571,13.4797159 L28.3920192,13.4797159 L21.0278008,21.0105301 C20.4149005,21.6372742 20.4149005,22.653262 21.0278008,23.2800061 C21.3341253,23.5931214 21.7358625,23.75 22.1374741,23.75 C22.5390857,23.75 22.9406973,23.5931214 23.2471474,23.2800061 L33.2903248,13.009722 C33.9032251,12.3829779 33.9032251,11.36699 33.2903248,10.7402459 Z" id="Shape"></path>
                </g>
            </g>
        </g>
    </g>
</svg>